<?xml version="1.0" encoding="UTF-8"?>
<svg id="Layer_2" data-name="Layer 2" xmlns="http://www.w3.org/2000/svg" viewBox="0 0 507.25 391.41">
  <defs>
    <style>
      .cls-1 {
        fill: #72c162;
      }

      .cls-2 {
        fill: #db2d29;
      }

      .cls-3 {
        fill: #121429;
      }
    </style>
  </defs>
  <g id="Layer_1-2" data-name="Layer 1">
    <g>
      <g>
        <path class="cls-3" d="M110.14,0V32.26l-15.46,9.06,15.46,8.93v43.05H35.5V0H110.14Zm-18.66,21.59v-2.93H54.16v24.39l37.32-21.46Zm0,53.05v-13.6l-15.46-9.06-21.86,12.66v10h37.32Z"/>
        <path class="cls-3" d="M125.6,0h74.64V27.99h-18.66v-9.33h-55.98V0Zm55.98,74.64v-9.33h18.66v27.99H125.6V37.32h55.98v18.66h-37.32v18.66h37.32Z"/>
        <path class="cls-3" d="M270.62,0h18.66V93.3h-18.66V45.59c-9.33-5.33-21.82-12.53-37.45-21.59,0,8.35,.02,20.31,.07,35.86,.05,15.55,.07,26.7,.07,33.46h-18.66V0h18.66V2.53c18.48,10.66,30.92,17.82,37.32,21.46V0Z"/>
        <path class="cls-3" d="M362.46,0h18.66V86.77c0,1.78-.65,3.31-1.93,4.6s-2.82,1.93-4.6,1.93h-61.58c-1.78,0-3.31-.64-4.6-1.93-1.29-1.29-1.93-2.82-1.93-4.6V0h18.66V74.64h37.32V0Z"/>
        <path class="cls-3" d="M397.11,0h74.64V27.99h-18.66v-9.33h-55.98V0Zm55.98,74.64v-9.33h18.66v27.99h-74.64V37.32h55.98v18.66h-37.32v18.66h37.32Z"/>
      </g>
      <g>
        <path class="cls-1" d="M202.93,214.91c-.37-.53-.75-1.06-1.12-1.59-1.48-1.01-1.83-2.41-1.47-4.09,.29-1.33,.88-2.6,1.04-3.95,.37-3.03,.11-5.98-2-8.42-1.57-1.81-3.33-2.13-5.14-.72-2.93,2.29-5.72,2-8.59,.02-1.07-.74-2.12-1.49-3.11-2.34-.94-.96-1.92-1.9-2.64-3.05-1.1-1.68-2.26-3.33-3.04-5.2-.29-.7-.71-1.5,.02-2.17,.7-.64,1.48-.18,2.19,.09,1.29,.49,2.26,1.51,3.45,2.17,1.84,1.02,2.67,.52,2.8-1.57,.13-2.18,.92-4.01,2.9-5.2,1.39-.84,2.75-1.72,4.13-2.57,1.49-.92,2.64-2.07,3.25-3.73,.51-.93,.84-1.93,1.1-2.96,.31-1.78,.67-3.56,.67-5.38,0-1.45,.37-2.82,.93-4.14,.52-1.22,0-1.69-1.2-1.69-.32,0-.65,.06-.97,.06-1.93-.04-3.19-.89-3.8-2.72-.68-2.02-1.17-4.1-1.58-6.2-.04-.4-.14-.79-.24-1.18-.06-.2-.09-.4-.12-.6-.26-2.44-.47-4.88-.5-7.35-.02-2.41-.86-4.54-2.78-6.17-1.29-1.1-2.38-2.4-3.22-3.87-.6-1.05-1.22-2.15-.88-3.47,.02-.82,.16-1.66-.35-2.4-1-1.35-.64-2.85-.43-4.3,.15-1.05,1.06-1.29,1.94-1.18,2.45,.3,4.94,.18,7.36,.76,2.86,.69,5.77,.87,8.69,1.08,1.12,.08,2.18,.31,3.2,.79,.66,.38,1.42,.64,1.79,1.4,.74,.49,1.55,.75,2.44,.77,3.6-.71,6.86,.46,10.08,1.85,.53,.25,1.1,.55,1.66,.51,3.86-.25,6.68,2.07,9.75,3.82,.92,.52,2.06,1.63,2.97,.85,1.11-.95-.14-2.11-.55-3.14-.29-.72-.78-1.34-1.2-2-1.03-1.95-1.86-4-2.87-5.94-2.41-4.67,1.17-10.84,5.97-11.54,2.54-.37,5.03-1.34,7.67-.84,.58,.21,1.25,.24,1.67,.79,.88,.43,1.8,.72,2.78,.79,1.48-.38,2.81,.26,4.18,.62,3.46,.9,6.95,1.67,10.55,1.54,2.01-.07,4.01-.32,6-.59,1.24-.17,2.31,.06,3.3,.8,2.82,2.09,5.87,3.83,8.82,5.72,.64,.47,1.35,.87,1.77,1.58,.46,1.34-.5,2.3-.94,3.4-.17,.41-.41,.8-.58,1.21-.22,.52-.62,1.09-.1,1.59,.43,.42,.97,.09,1.44-.07,.37-.12,.69-.33,1.02-.54,.5-.32,1.01-.63,1.53-.93,2.41-1.47,5.14-1.78,7.86-1.95,2.21-.14,4.38-.53,6.58-.66,6.01-.36,11.75,.39,16.61,4.41,.35,.29,.71,.57,.83,1.04,1.28,1.34,2.57,2.67,3.85,4.01,3.31,2.4,6.51,5,9.36,7.85,2.34,2.35,3.89,5.63,3.91,9.25-.22,.85-.47,1.69-.58,2.56-1,3.07-1.2,6.2-.79,9.38,.26,2.03-.49,3.58-2,4.98-1.89,1.75-3.86,3.48-5.18,5.76-.69,.88-1.2,1.86-1.62,2.89-1.34,2.78-1.29,5.83-1.63,8.78-.28,2.5-.66,5.04-.09,7.57,.07,1.92-.24,3.86,.25,5.77,.45,4.37,.06,8.68-.97,12.94-.1,.2-.22,.37-.36,.54-.14,.15-.3,.28-.48,.39-.43,.23-.9,.35-1.33,.56-1.13,.42-1.76,1.28-2.16,2.37-.29,.79-.51,1.64-1.46,1.95-.49,.4-.99,.79-1.48,1.19-1.48,1.68-2.65,1.77-4.12,.31-.42-.63-.83-1.26-1.29-1.86-2.45-3.37-5.3-6.42-8.33-9.23-2.99-2.77-6.52-4.46-10.85-2.82-1.63,.62-3.41,.81-5.06,1.41-.19,.07-.38,.11-.58,.14-.91,.06-1.77,.41-2.68,.45-.84,.04-1.68,.07-2.52-.04-1.78-.22-2.69-.99-2.56-2.77,.28-3.84-1.54-6.1-4.92-7.42-.86-.5-1.75-.94-2.66-1.33-3.01-1.25-6.03-2.44-9.4-2.1-1.98,.2-3.83,.67-5.19,2.26-.49,.8-.32,1.63-.08,2.46,.22,3.17-.87,4.43-4.96,5.74-.82,.13-1.6,.45-2.43,.48-1.1,.04-2.22,.12-3.31,0-2.34-.28-4.01,.7-5.33,2.51-.58,.79-1.24,1.49-2.14,1.95-2.45,1.26-4.43,.58-5.62-1.9-.59-1.23-.53-2.98-1.64-3.66-1.27-.78-2.04,1.4-3.51,1.32-.96-.05-1.57,.84-2.01,1.67-.94,1.78-2.49,2.58-4.42,2.78-.39,.04-.78,.08-1.16,.14-3.31,.53-3.95,1.28-3.99,4.58-.01,1.04,.08,2.08-.14,3.11-.19,.64-.51,1.22-.83,1.81-.46,.64-.87,1.32-1.26,2-.15,.21-.34,.39-.56,.53-.57,.3-1.12,.15-1.67-.09-.14-.06-.28-.13-.41-.21-.19-.11-.39-.22-.59-.32-.14-.06-.27-.13-.4-.2-.28-.14-.58-.26-.86-.4-.53-.31-1.09-.59-1.26-1.25Z"/>
        <path class="cls-3" d="M74.64,115.76v32.26l-15.46,9.06,15.46,8.93v43.05H0V115.76H74.64Zm-18.66,21.59v-2.93H18.66v24.39l37.32-21.46Zm0,53.05v-13.6l-15.46-9.06-21.86,12.66v10H55.98Z"/>
        <path class="cls-3" d="M147.42,181.07h18.66v27.99H91.44V115.76h18.66v74.64h37.32v-9.33Z"/>
        <path class="cls-3" d="M416.09,153.08h-18.66v-18.66h-37.32v55.98h37.32v-18.66h18.66v37.32h-74.64V115.76h74.64v37.32Z"/>
        <path class="cls-3" d="M498.99,115.76h8.26v25.86l-37.32,21.46,37.32,21.59v24.39h-18.66v-13.6l-37.32-21.59v35.19h-18.66V115.76h18.66v36.65l37.32-21.59v-15.06h10.4Z"/>
      </g>
      <g>
        <g>
          <polygon class="cls-2" points="455.55 282.18 455.55 293.86 439.15 293.86 439.15 280.62 445.99 276.64 455.55 282.18"/>
          <path class="cls-2" d="M419.06,227.65v90.73h56.25v-90.73h-56.25Zm48.87,61.64l-4.1-2.32v15.1h-32.88v-26.24l6.84-3.9-6.84-3.96v-25.57h32.88v21.19h-8.27v-12.99h-16.4v12.65l16.4,9.44v-.89h8.27v5.66l4.1,2.4v9.44Z"/>
        </g>
        <g>
          <path class="cls-3" d="M114.84,264.28h-18.29v-18.29H59.97v54.87h36.58v-18.29h18.29v36.58H41.68v-91.45H114.84v36.58Z"/>
          <path class="cls-3" d="M182.65,227.7h18.29v91.45h-18.29v-36.58h-36.58v36.58h-18.29v-91.45h18.29v36.58h36.58v-36.58Z"/>
          <path class="cls-3" d="M214.65,227.7h73.16v91.45h-18.29v-45.73l-36.58,21.16v24.56h-18.29v-91.45Zm54.87,24.56v-6.27h-36.58v27.44l36.58-21.16Z"/>
          <path class="cls-3" d="M301.53,227.7h18.29v91.45h-18.29v-91.45Z"/>
          <path class="cls-3" d="M388.54,227.7h18.29v91.45h-18.29v-46.77c-9.15-5.23-21.38-12.28-36.71-21.16,0,8.19,.02,19.9,.06,35.14,.04,15.24,.07,26.17,.07,32.79h-18.29v-91.45h18.29v2.48c18.12,10.45,30.31,17.46,36.58,21.03v-23.52Z"/>
        </g>
      </g>
      <g>
        <path class="cls-1" d="M44.77,341.31h40.08v50.1h-10.02v-25.05l-20.04,11.6v13.46h-10.02v-50.1Zm30.06,13.46v-3.44h-20.04v15.03l20.04-11.59Z"/>
        <path class="cls-1" d="M94.15,341.31h10.02v50.1h-10.02v-50.1Z"/>
        <path class="cls-3" d="M146.55,391.41h-10.02v-30.06h30.06v10.02h-20.04v20.04Zm-8.95-50.1h40.08v15.03h-10.02v-5.01h-30.06v-10.02Z"/>
        <path class="cls-3" d="M182.76,341.31h40.08v15.03h-10.02v-5.01h-30.06v-10.02Zm30.06,40.08v-5.01h10.02v15.03h-40.08v-30.06h30.06v10.02h-20.04v10.02h20.04Z"/>
        <path class="cls-3" d="M270.16,360.57h-10.02v-9.23h-20.04v3.44l30.06,17.39v19.25h-40.08v-19.25h10.02v9.23h20.04v-3.44l-30.06-17.39v-19.25h40.08v19.25Z"/>
        <path class="cls-3" d="M275.17,341.31h40.08v10.02h-15.03v40.08h-10.02v-40.08h-15.03v-10.02Z"/>
        <path class="cls-3" d="M320.69,341.31h10.02v50.1h-10.02v-50.1Z"/>
        <path class="cls-3" d="M369.43,341.31h10.02v38.51l-20.04,11.59-20.04-11.59v-38.51h10.02v32.78l10.02,5.73,10.02-5.73v-32.78Z"/>
        <path class="cls-3" d="M388.04,341.31h40.08v50.1h-10.02v-25.05l-20.04,11.6v13.46h-10.02v-50.1Zm30.06,13.46v-3.44h-20.04v15.03l20.04-11.59Z"/>
        <path class="cls-3" d="M467.49,376.38h10.02v15.03h-40.08v-50.1h10.02v40.08h20.04v-5.01Z"/>
      </g>
    </g>
  </g>
</svg>