<svg width="539" height="291" viewBox="0 0 539 291" fill="none" xmlns="http://www.w3.org/2000/svg">
<path d="M324.197 152.806C324.197 158.329 319.72 162.806 314.197 162.806H270.688C265.165 162.806 260.688 167.283 260.688 172.806V212.624C260.688 218.147 265.165 222.624 270.688 222.624H306.812C312.335 222.624 316.812 227.101 316.812 232.624V280.564C316.812 286.087 312.335 290.564 306.812 290.564H255.179C249.656 290.564 245.179 286.087 245.179 280.564V232.624C245.179 227.101 240.702 222.624 235.179 222.624H199.054C193.531 222.624 189.054 218.147 189.054 212.624V172.806C189.054 167.283 184.577 162.806 179.054 162.806H71.6343C71.634 162.806 71.6338 162.806 71.6338 162.806C71.6338 162.806 71.6336 162.807 71.6333 162.807H10C4.47715 162.807 0 158.329 0 152.807V104.865C0 99.3424 4.47715 94.8652 10 94.8652H61.6338C67.1566 94.8652 71.6338 90.3881 71.6338 84.8652V10C71.6338 4.47716 76.1109 0 81.6338 0H314.197C319.72 0 324.197 4.47715 324.197 10V152.806ZM410.759 77.9414C410.759 72.4186 415.236 67.9414 420.759 67.9414H456.884C462.407 67.9414 466.884 63.4643 466.884 57.9414V10C466.884 4.47715 471.361 0 476.884 0H528.518C534.04 0 538.518 4.47715 538.518 10V57.9414C538.518 63.4643 534.04 67.9414 528.518 67.9414H492.393C486.87 67.9414 482.393 72.4186 482.393 77.9414V125.882C482.393 131.405 477.915 135.882 472.393 135.882H420.759C415.236 135.882 410.759 131.405 410.759 125.882V77.9414Z" fill="#00DA99"/>
</svg>
